<svg xmlns="http://www.w3.org/2000/svg" version="1.1" xmlns:xlink="http://www.w3.org/1999/xlink" width="2000" height="1500" viewBox="0 0 2000 1500"><rect width="2000" height="1500" x="0" y="0" id="background" stroke="transparent" fill="#1f2d5a"></rect><svg xml:space="preserve" width="1500" height="1125" data-version="2" data-id="lg_cKhUHEkjiD4vTbYMQv" viewBox="0 0 348 461" x="250" y="187.5"><rect width="100%" height="100%" fill="transparent"></rect><path fill="#fbfbfb" d="M276.143 4.498q3.86 0 5.79 3.69 1.93 3.69 2.28 7.55 0 8.42-3.51 15.44-4.21 10.18-11.76 17.9-7.54 7.72-17.02 8.78-17.55 2.45-24.57 3.51 7.72 21.41 10.88 41.41 4.21 23.52 4.56 30.89.71 9.83.71 15.1 0 4.91-.71 15.44-2.1 38.96-8.42 61.78-5.27 18.95-10.88 29.83-4.92 10.53-9.13 17.37-4.21 6.85-9.83 12.11l-9.82 9.13-6.67 3.86q-4.21 3.16-9.83 3.16-2.11.7-3.51.7-13.69-.7-25.27-6.32-9.13-4.91-17.2-11.4-8.07-6.5-19.66-17.03l-37.55-33.69q-4.57-4.21-4.57-11.59 0-10.17 8.43-23.16 8.77-13.34 18.95-17.55 2.81-1.41 5.62-1.41 3.16 0 5.61 1.41l27.38 25.97 8.42 7.72q13.34 12.29 22.99 19.66 9.66 7.37 20.89 11.58.7.35 2.11.35 2.1-4.91 2.8-7.72 3.86-12.63 7.37-38.61 1.76-16.85 1.76-30.53 0-8.08-.35-11.94l-.7-7.37q-2.11-21.76-4.22-32.99-4.91-23.17-14.74-41.42-1.4-2.46-1.4-6.67l-4.92.7q-30.88 7.72-46.33 11.94-1.05.35-2.28.7-1.23.35-2.98.35-4.57 0-7.02-4.56-1.06-3.16-1.06-6.32 0-1.76.71-5.27 2.1-11.23 11.23-21.06 4.91-5.26 11.23-8.07 22.46-6.32 33.7-9.83 7.72-2.46 10.18-2.81 12.63-3.86 20.35-5.61 35.45-8.08 70.55-14.74z"></path><rect width="45.73" height="121.3" x="-22.86" y="-60.65" fill="#1f2d5a" stroke="#fbfbfb" stroke-width="2" rx="22" ry="22" transform="matrix(0 -2.7678 2.7678 0 174 390.45)"></rect><path fill="#fbfbfb" d="M136.093 399.638q21.45-1.19 33.26-2.64-1.12 3.43-1.71 7.26-.6 3.82-.6 6.93h-47.19l-.06-1.39q0-6.47 3.79-11.22 3.8-4.75 10.59-8.78 1.98-1.19 6.21-3.03 5.48-2.38 8.45-4.2 2.97-1.81 2.97-3.59 0-2.25-1.85-3.57-1.85-1.32-5.74-1.32-4.29 0-6.5 2.18-2.22 2.18-2.22 5.55 0 1.05.2 2.17-8.31-1.05-16.17-1.45 0-5.61 2.94-10.13 2.94-4.52 8.84-7.16 5.91-2.64 14.49-2.64 7.85 0 13.1 2.14 5.25 2.15 7.72 5.42 2.48 3.26 2.48 6.7 0 3.96-1.75 6.79-1.75 2.84-5.02 5.05-3.26 2.21-8.74 4.79-.79.39-2.58.89-1.78.49-2.24.63-4.69 1.38-7.46 2.31-2.77.92-5.21 2.31m85.27-9.24h8.98v12.4h-8.98v8.39h-15.77q.26-2.78.39-8.39h-31.35v-13.33q15.38-11.81 27.46-26.2h19.27zm-15.25 0 .2-14.06q-4.55 4.68-7.85 7.82-3.3 3.13-7.46 6.24z"></path></svg></svg>